<?xml version="1.0" encoding="UTF-8"?>
<svg width="40px" height="40px" viewBox="0 0 40 40" version="1.1" xmlns="http://www.w3.org/2000/svg" xmlns:xlink="http://www.w3.org/1999/xlink">
    <!-- Generator: Sketch 51.3 (57544) - http://www.bohemiancoding.com/sketch -->
    <title>twit</title>
    <desc>Created with Sketch.</desc>
    <defs></defs>
    <g id="*Site-Design" stroke="none" stroke-width="1" fill="none" fill-rule="evenodd">
        <g id="G_Nav_DK" transform="translate(-130.000000, -782.000000)">
            <g id="Nav">
                <g id="Social" transform="translate(30.000000, 782.000000)">
                    <g id="twit" transform="translate(100.000000, 0.000000)">
                        <circle id="Oval-2" stroke="#E1E000" stroke-width="2" cx="20" cy="20" r="19"></circle>
                        <path d="M16.28992,28.25424 C23.83736,28.25424 27.96472,22.00136 27.96472,16.57936 C27.96472,16.40168 27.96112,16.2248 27.95304,16.04888 C28.75416,15.46976 29.45056,14.74712 30,13.92432 C29.2648,14.25088 28.47352,14.47104 27.6436,14.57032 C28.49072,14.0624 29.1412,13.25856 29.44792,12.30048 C28.65488,12.77048 27.77712,13.1124 26.84248,13.2964 C26.09368,12.49888 25.02728,12 23.84728,12 C21.58104,12 19.74336,13.83768 19.74336,16.10304 C19.74336,16.42512 19.77944,16.73816 19.84984,17.03864 C16.43968,16.8672 13.4156,15.23432 11.39208,12.75152 C11.03936,13.35776 10.83632,14.0624 10.83632,14.81392 C10.83632,16.23752 11.5608,17.49424 12.66232,18.22944 C11.98928,18.20872 11.35688,18.02376 10.80384,17.71608 C10.80296,17.7332 10.80296,17.7504 10.80296,17.7684 C10.80296,19.75592 12.21752,21.41496 14.09496,21.7912 C13.75032,21.88496 13.38768,21.9356 13.01328,21.9356 C12.74888,21.9356 12.49176,21.90936 12.24192,21.86152 C12.76424,23.49176 14.27896,24.67808 16.0752,24.71152 C14.67048,25.81216 12.90136,26.468 10.97888,26.468 C10.64776,26.468 10.3212,26.44904 10,26.41112 C11.81608,27.57496 13.97224,28.25424 16.28992,28.25424" id="Fill-1" fill="#3F2A56"></path>
                    </g>
                </g>
            </g>
        </g>
    </g>
</svg>